# xmcd
#
# Track frame offsets: 
#        150
#        12259
#        23119
#        34879
#        48264
#        61339
#        74149
#        93699
#        104189
#        116214
#        129316
#        145164
#        160369
#        176414
#
# Disc length: 2603 seconds
#
# Revision: 0
# Processed by: cddbd v1.5.1PL0 Copyright (c) Steve Scherf et al.
# Submitted via: ExactAudioCopy v0.95a5
#
DISCID=ce0a290e
DTITLE=Various Artist - Country Legends
DYEAR=1900
DGENRE=Country
TTITLE0=The Most Beautiful Girl
TTITLE1=Silver Threads And Golden Needles
TTITLE2=Ring Of Fire
TTITLE3=If I Where A Carpenter
TTITLE4=Dream Baby
TTITLE5=Rose Garden
TTITLE6=El Paso
TTITLE7=Flowers On The Wall
TTITLE8=Stand By Your Man
TTITLE9=Delta Down
TTITLE10=Always On My Mind
TTITLE11=You Can Feel Bad
TTITLE12=My Elusive Dreams
TTITLE13=Me And My Bobby McGee
EXTD=
EXTT0=
EXTT1=
EXTT2=
EXTT3=
EXTT4=
EXTT5=
EXTT6=
EXTT7=
EXTT8=
EXTT9=
EXTT10=
EXTT11=
EXTT12=
EXTT13=
PLAYORDER=
